<?xml version="1.0" standalone="no"?>
<!DOCTYPE svg PUBLIC "-//W3C//DTD SVG 20010904//EN"
 "http://www.w3.org/TR/2001/REC-SVG-20010904/DTD/svg10.dtd">
<svg version="1.0" xmlns="http://www.w3.org/2000/svg"
 width="512.000000pt" height="512.000000pt" viewBox="0 0 512.000000 512.000000"
 preserveAspectRatio="xMidYMid meet">
<metadata>
Created by potrace 1.11, written by Peter Selinger 2001-2013
</metadata>
<g transform="translate(0.000000,512.000000) scale(0.100000,-0.100000)"
fill="#000000" stroke="none">
<path d="M2369 5116 c-2 -2 -43 -7 -91 -10 -48 -3 -93 -8 -100 -11 -7 -2 -33
-7 -58 -10 -72 -11 -81 -12 -170 -34 -473 -113 -874 -339 -1220 -690 -366
-371 -606 -836 -695 -1351 -7 -36 -9 -56 -22 -175 -14 -126 -8 -470 11 -595
96 -637 396 -1185 870 -1584 357 -302 793 -503 1240 -572 21 -3 48 -7 59 -10
149 -28 531 -25 727 8 36 5 74 11 85 13 83 11 422 109 459 133 6 3 17 7 23 8
7 1 82 36 166 77 489 241 889 635 1137 1122 59 115 87 180 143 330 37 100 88
312 108 450 31 217 33 549 4 716 -29 169 -39 220 -64 315 -42 159 -91 288
-177 461 -229 464 -593 847 -1049 1100 -87 48 -279 134 -365 163 -36 12 -74
26 -85 31 -20 9 -233 62 -290 73 -158 30 -250 38 -441 41 -111 2 -203 2 -205
1z m421 -399 c14 -3 47 -8 73 -12 212 -29 480 -118 679 -227 206 -111 354
-222 519 -390 210 -212 344 -420 480 -743 14 -33 69 -207 74 -232 2 -13 11
-56 20 -96 30 -142 41 -267 39 -455 -1 -103 -5 -205 -8 -227 -4 -22 -14 -80
-22 -130 -87 -520 -398 -1019 -838 -1346 -224 -166 -488 -288 -772 -358 -192
-46 -320 -60 -544 -56 -329 6 -597 70 -895 215 -318 154 -574 368 -798 668
-26 34 -47 64 -47 66 0 3 -17 31 -39 63 -53 81 -153 288 -197 408 -33 93 -86
295 -98 375 -22 147 -29 457 -13 595 55 472 273 922 607 1255 123 123 139 137
245 216 237 178 565 326 838 380 81 15 140 25 197 30 36 3 67 8 69 10 5 5 402
-3 431 -9z"/>
<path d="M2479 4136 c-57 -20 -95 -52 -118 -99 -21 -43 -21 -52 -21 -771 0
-692 1 -730 19 -764 24 -47 56 -77 103 -97 33 -13 130 -15 756 -15 778 0 755
-2 815 54 75 69 78 200 7 275 -13 13 -42 32 -65 42 -39 17 -77 18 -541 19
-274 0 -545 0 -601 0 l-103 0 -1 603 c0 434 -4 611 -12 634 -35 94 -148 150
-238 119z"/>
</g>
</svg>
